%
M48
M72
T01C0.03150
T02C0.03937
%
T01
X20000Y78750
X27500Y83750
X27500Y101250
X41250Y127500
X65000Y140000
X67500Y111250
X67500Y102500
X67500Y82500
X101250Y111250
X110000Y102500
X121250Y91250
X131250Y82500
X152500Y91250
X158750Y82500
X168750Y44989
X158750Y38750
X148750Y32500
X138750Y26250
X206250Y26250
X212500Y32500
X220000Y38750
X227500Y45000
T02
X48051Y58750
X58051Y58750
X68051Y58750
X78051Y58750
X88051Y58750
X98051Y58750
X98051Y68750
X88051Y68750
X78051Y68750
X68051Y68750
X58051Y68750
X48051Y68750
X81250Y130000
X91250Y130000
X101250Y130000
X111250Y130000
X121250Y130000
X131250Y130000
X141250Y130000
X151250Y130000
X151250Y140000
X141250Y140000
X131250Y140000
X121250Y140000
X111250Y140000
X101250Y140000
X91250Y140000
X81250Y140000
X138750Y68750
X148750Y68750
X158750Y68750
X168750Y68750
X178750Y68750
X188750Y68750
X188750Y58750
X178750Y58750
X168750Y58750
X158750Y58750
X148750Y58750
X138750Y58750
M30
