G75*
%MOIN*%
%OFA0B0*%
%FSLAX25Y25*%
%IPPOS*%
%LPD*%
%AMOC8*
5,1,8,0,0,1.08239X$1,22.5*
%
%ADD10C,0.00512*%
%ADD11C,0.00600*%
D10*
X0072500Y0026073D02*
X0072500Y0068750D01*
X0072756Y0033750D02*
X0082736Y0034774D01*
X0082736Y0035007D02*
X0082736Y0032493D01*
X0072756Y0033750D01*
X0082736Y0032726D01*
X0082736Y0033238D02*
X0072756Y0033750D01*
X0082736Y0034262D01*
X0082736Y0035007D02*
X0072756Y0033750D01*
X0162244Y0033750D01*
X0152264Y0032726D01*
X0152264Y0032493D02*
X0162244Y0033750D01*
X0152264Y0034774D01*
X0152264Y0035007D02*
X0152264Y0032493D01*
X0152264Y0033238D02*
X0162244Y0033750D01*
X0152264Y0034262D01*
X0152264Y0035007D02*
X0162244Y0033750D01*
X0162500Y0026073D02*
X0162500Y0068750D01*
D11*
X0129040Y0042711D02*
X0128934Y0042709D01*
X0128827Y0042703D01*
X0128722Y0042693D01*
X0128616Y0042679D01*
X0128511Y0042661D01*
X0128407Y0042640D01*
X0128304Y0042614D01*
X0128202Y0042585D01*
X0128101Y0042551D01*
X0128001Y0042514D01*
X0127903Y0042474D01*
X0127806Y0042429D01*
X0127711Y0042381D01*
X0127618Y0042330D01*
X0127527Y0042275D01*
X0127438Y0042217D01*
X0127351Y0042155D01*
X0127267Y0042091D01*
X0127185Y0042023D01*
X0127106Y0041952D01*
X0127029Y0041878D01*
X0126955Y0041801D01*
X0126884Y0041722D01*
X0126816Y0041640D01*
X0126752Y0041556D01*
X0126690Y0041469D01*
X0126632Y0041380D01*
X0126577Y0041289D01*
X0126526Y0041196D01*
X0126478Y0041101D01*
X0126433Y0041004D01*
X0126393Y0040906D01*
X0126356Y0040806D01*
X0126322Y0040705D01*
X0126293Y0040603D01*
X0126267Y0040500D01*
X0126246Y0040396D01*
X0126228Y0040291D01*
X0126214Y0040185D01*
X0126204Y0040080D01*
X0126198Y0039973D01*
X0126196Y0039867D01*
X0126196Y0038090D01*
X0126196Y0039867D02*
X0128329Y0039867D01*
X0128403Y0039865D01*
X0128478Y0039859D01*
X0128551Y0039849D01*
X0128625Y0039836D01*
X0128697Y0039819D01*
X0128768Y0039797D01*
X0128839Y0039773D01*
X0128907Y0039744D01*
X0128975Y0039712D01*
X0129040Y0039676D01*
X0129103Y0039638D01*
X0129165Y0039595D01*
X0129224Y0039550D01*
X0129281Y0039502D01*
X0129335Y0039451D01*
X0129386Y0039397D01*
X0129434Y0039340D01*
X0129479Y0039281D01*
X0129522Y0039219D01*
X0129560Y0039156D01*
X0129596Y0039091D01*
X0129628Y0039023D01*
X0129657Y0038955D01*
X0129681Y0038884D01*
X0129703Y0038813D01*
X0129720Y0038741D01*
X0129733Y0038667D01*
X0129743Y0038594D01*
X0129749Y0038519D01*
X0129751Y0038445D01*
X0129751Y0038090D01*
X0129752Y0038090D02*
X0129750Y0038007D01*
X0129744Y0037924D01*
X0129734Y0037841D01*
X0129721Y0037758D01*
X0129703Y0037677D01*
X0129682Y0037596D01*
X0129657Y0037517D01*
X0129628Y0037439D01*
X0129596Y0037362D01*
X0129560Y0037287D01*
X0129521Y0037213D01*
X0129478Y0037142D01*
X0129432Y0037072D01*
X0129382Y0037005D01*
X0129330Y0036940D01*
X0129275Y0036878D01*
X0129216Y0036818D01*
X0129155Y0036761D01*
X0129092Y0036707D01*
X0129026Y0036656D01*
X0128957Y0036609D01*
X0128887Y0036564D01*
X0128814Y0036523D01*
X0128740Y0036486D01*
X0128664Y0036451D01*
X0128586Y0036421D01*
X0128508Y0036394D01*
X0128427Y0036371D01*
X0128346Y0036351D01*
X0128264Y0036336D01*
X0128182Y0036324D01*
X0128099Y0036316D01*
X0128016Y0036312D01*
X0127932Y0036312D01*
X0127849Y0036316D01*
X0127766Y0036324D01*
X0127684Y0036336D01*
X0127602Y0036351D01*
X0127521Y0036371D01*
X0127440Y0036394D01*
X0127362Y0036421D01*
X0127284Y0036451D01*
X0127208Y0036486D01*
X0127134Y0036523D01*
X0127061Y0036564D01*
X0126991Y0036609D01*
X0126922Y0036656D01*
X0126856Y0036707D01*
X0126793Y0036761D01*
X0126732Y0036818D01*
X0126673Y0036878D01*
X0126618Y0036940D01*
X0126566Y0037005D01*
X0126516Y0037072D01*
X0126470Y0037142D01*
X0126427Y0037213D01*
X0126388Y0037287D01*
X0126352Y0037362D01*
X0126320Y0037439D01*
X0126291Y0037517D01*
X0126266Y0037596D01*
X0126245Y0037677D01*
X0126227Y0037758D01*
X0126214Y0037841D01*
X0126204Y0037924D01*
X0126198Y0038007D01*
X0126196Y0038090D01*
X0123598Y0038090D02*
X0123596Y0038007D01*
X0123590Y0037924D01*
X0123580Y0037841D01*
X0123567Y0037758D01*
X0123549Y0037677D01*
X0123528Y0037596D01*
X0123503Y0037517D01*
X0123474Y0037439D01*
X0123442Y0037362D01*
X0123406Y0037287D01*
X0123367Y0037213D01*
X0123324Y0037142D01*
X0123278Y0037072D01*
X0123228Y0037005D01*
X0123176Y0036940D01*
X0123121Y0036878D01*
X0123062Y0036818D01*
X0123001Y0036761D01*
X0122938Y0036707D01*
X0122872Y0036656D01*
X0122803Y0036609D01*
X0122733Y0036564D01*
X0122660Y0036523D01*
X0122586Y0036486D01*
X0122510Y0036451D01*
X0122432Y0036421D01*
X0122354Y0036394D01*
X0122273Y0036371D01*
X0122192Y0036351D01*
X0122110Y0036336D01*
X0122028Y0036324D01*
X0121945Y0036316D01*
X0121862Y0036312D01*
X0121778Y0036312D01*
X0121695Y0036316D01*
X0121612Y0036324D01*
X0121530Y0036336D01*
X0121448Y0036351D01*
X0121367Y0036371D01*
X0121286Y0036394D01*
X0121208Y0036421D01*
X0121130Y0036451D01*
X0121054Y0036486D01*
X0120980Y0036523D01*
X0120907Y0036564D01*
X0120837Y0036609D01*
X0120768Y0036656D01*
X0120702Y0036707D01*
X0120639Y0036761D01*
X0120578Y0036818D01*
X0120519Y0036878D01*
X0120464Y0036940D01*
X0120412Y0037005D01*
X0120362Y0037072D01*
X0120316Y0037142D01*
X0120273Y0037213D01*
X0120234Y0037287D01*
X0120198Y0037362D01*
X0120166Y0037439D01*
X0120137Y0037517D01*
X0120112Y0037596D01*
X0120091Y0037677D01*
X0120073Y0037758D01*
X0120060Y0037841D01*
X0120050Y0037924D01*
X0120044Y0038007D01*
X0120042Y0038090D01*
X0120044Y0038173D01*
X0120050Y0038256D01*
X0120060Y0038339D01*
X0120073Y0038422D01*
X0120091Y0038503D01*
X0120112Y0038584D01*
X0120137Y0038663D01*
X0120166Y0038741D01*
X0120198Y0038818D01*
X0120234Y0038893D01*
X0120273Y0038967D01*
X0120316Y0039038D01*
X0120362Y0039108D01*
X0120412Y0039175D01*
X0120464Y0039240D01*
X0120519Y0039302D01*
X0120578Y0039362D01*
X0120639Y0039419D01*
X0120702Y0039473D01*
X0120768Y0039524D01*
X0120837Y0039571D01*
X0120907Y0039616D01*
X0120980Y0039657D01*
X0121054Y0039694D01*
X0121130Y0039729D01*
X0121208Y0039759D01*
X0121286Y0039786D01*
X0121367Y0039809D01*
X0121448Y0039829D01*
X0121530Y0039844D01*
X0121612Y0039856D01*
X0121695Y0039864D01*
X0121778Y0039868D01*
X0121862Y0039868D01*
X0121945Y0039864D01*
X0122028Y0039856D01*
X0122110Y0039844D01*
X0122192Y0039829D01*
X0122273Y0039809D01*
X0122354Y0039786D01*
X0122432Y0039759D01*
X0122510Y0039729D01*
X0122586Y0039694D01*
X0122660Y0039657D01*
X0122733Y0039616D01*
X0122803Y0039571D01*
X0122872Y0039524D01*
X0122938Y0039473D01*
X0123001Y0039419D01*
X0123062Y0039362D01*
X0123121Y0039302D01*
X0123176Y0039240D01*
X0123228Y0039175D01*
X0123278Y0039108D01*
X0123324Y0039038D01*
X0123367Y0038967D01*
X0123406Y0038893D01*
X0123442Y0038818D01*
X0123474Y0038741D01*
X0123503Y0038663D01*
X0123528Y0038584D01*
X0123549Y0038503D01*
X0123567Y0038422D01*
X0123580Y0038339D01*
X0123590Y0038256D01*
X0123596Y0038173D01*
X0123598Y0038090D01*
X0123242Y0041290D02*
X0123240Y0041216D01*
X0123234Y0041141D01*
X0123224Y0041068D01*
X0123211Y0040994D01*
X0123194Y0040922D01*
X0123172Y0040851D01*
X0123148Y0040780D01*
X0123119Y0040712D01*
X0123087Y0040644D01*
X0123051Y0040579D01*
X0123013Y0040516D01*
X0122970Y0040454D01*
X0122925Y0040395D01*
X0122877Y0040338D01*
X0122826Y0040284D01*
X0122772Y0040233D01*
X0122715Y0040185D01*
X0122656Y0040140D01*
X0122594Y0040097D01*
X0122531Y0040059D01*
X0122466Y0040023D01*
X0122398Y0039991D01*
X0122330Y0039962D01*
X0122259Y0039938D01*
X0122188Y0039916D01*
X0122116Y0039899D01*
X0122042Y0039886D01*
X0121969Y0039876D01*
X0121894Y0039870D01*
X0121820Y0039868D01*
X0121746Y0039870D01*
X0121671Y0039876D01*
X0121598Y0039886D01*
X0121524Y0039899D01*
X0121452Y0039916D01*
X0121381Y0039938D01*
X0121310Y0039962D01*
X0121242Y0039991D01*
X0121174Y0040023D01*
X0121109Y0040059D01*
X0121046Y0040097D01*
X0120984Y0040140D01*
X0120925Y0040185D01*
X0120868Y0040233D01*
X0120814Y0040284D01*
X0120763Y0040338D01*
X0120715Y0040395D01*
X0120670Y0040454D01*
X0120627Y0040516D01*
X0120589Y0040579D01*
X0120553Y0040644D01*
X0120521Y0040712D01*
X0120492Y0040780D01*
X0120468Y0040851D01*
X0120446Y0040922D01*
X0120429Y0040994D01*
X0120416Y0041068D01*
X0120406Y0041141D01*
X0120400Y0041216D01*
X0120398Y0041290D01*
X0120400Y0041364D01*
X0120406Y0041439D01*
X0120416Y0041512D01*
X0120429Y0041586D01*
X0120446Y0041658D01*
X0120468Y0041729D01*
X0120492Y0041800D01*
X0120521Y0041868D01*
X0120553Y0041936D01*
X0120589Y0042001D01*
X0120627Y0042064D01*
X0120670Y0042126D01*
X0120715Y0042185D01*
X0120763Y0042242D01*
X0120814Y0042296D01*
X0120868Y0042347D01*
X0120925Y0042395D01*
X0120984Y0042440D01*
X0121046Y0042483D01*
X0121109Y0042521D01*
X0121174Y0042557D01*
X0121242Y0042589D01*
X0121310Y0042618D01*
X0121381Y0042642D01*
X0121452Y0042664D01*
X0121524Y0042681D01*
X0121598Y0042694D01*
X0121671Y0042704D01*
X0121746Y0042710D01*
X0121820Y0042712D01*
X0121894Y0042710D01*
X0121969Y0042704D01*
X0122042Y0042694D01*
X0122116Y0042681D01*
X0122188Y0042664D01*
X0122259Y0042642D01*
X0122330Y0042618D01*
X0122398Y0042589D01*
X0122466Y0042557D01*
X0122531Y0042521D01*
X0122594Y0042483D01*
X0122656Y0042440D01*
X0122715Y0042395D01*
X0122772Y0042347D01*
X0122826Y0042296D01*
X0122877Y0042242D01*
X0122925Y0042185D01*
X0122970Y0042126D01*
X0123013Y0042064D01*
X0123051Y0042001D01*
X0123087Y0041936D01*
X0123119Y0041868D01*
X0123148Y0041800D01*
X0123172Y0041729D01*
X0123194Y0041658D01*
X0123211Y0041586D01*
X0123224Y0041512D01*
X0123234Y0041439D01*
X0123240Y0041364D01*
X0123242Y0041290D01*
X0117690Y0036667D02*
X0117690Y0036312D01*
X0117334Y0036312D01*
X0117334Y0036667D01*
X0117690Y0036667D01*
X0114982Y0036312D02*
X0111426Y0036312D01*
X0114448Y0039867D01*
X0113382Y0042712D02*
X0113293Y0042710D01*
X0113204Y0042704D01*
X0113115Y0042695D01*
X0113027Y0042681D01*
X0112940Y0042664D01*
X0112853Y0042643D01*
X0112767Y0042618D01*
X0112683Y0042590D01*
X0112600Y0042557D01*
X0112518Y0042522D01*
X0112438Y0042482D01*
X0112360Y0042440D01*
X0112283Y0042394D01*
X0112209Y0042345D01*
X0112137Y0042292D01*
X0112067Y0042237D01*
X0112000Y0042178D01*
X0111935Y0042117D01*
X0111873Y0042053D01*
X0111814Y0041986D01*
X0111758Y0041917D01*
X0111705Y0041845D01*
X0111655Y0041771D01*
X0111608Y0041695D01*
X0111565Y0041618D01*
X0111525Y0041538D01*
X0111488Y0041457D01*
X0111455Y0041374D01*
X0111426Y0041289D01*
X0114449Y0039867D02*
X0114506Y0039925D01*
X0114562Y0039986D01*
X0114614Y0040049D01*
X0114663Y0040114D01*
X0114709Y0040182D01*
X0114751Y0040252D01*
X0114791Y0040324D01*
X0114826Y0040397D01*
X0114859Y0040473D01*
X0114887Y0040549D01*
X0114912Y0040627D01*
X0114933Y0040706D01*
X0114951Y0040786D01*
X0114964Y0040867D01*
X0114974Y0040948D01*
X0114980Y0041030D01*
X0114982Y0041112D01*
X0114980Y0041191D01*
X0114974Y0041269D01*
X0114965Y0041347D01*
X0114951Y0041424D01*
X0114934Y0041501D01*
X0114913Y0041576D01*
X0114888Y0041651D01*
X0114860Y0041724D01*
X0114828Y0041796D01*
X0114793Y0041866D01*
X0114754Y0041935D01*
X0114712Y0042001D01*
X0114667Y0042065D01*
X0114619Y0042127D01*
X0114568Y0042186D01*
X0114513Y0042243D01*
X0114456Y0042298D01*
X0114397Y0042349D01*
X0114335Y0042397D01*
X0114271Y0042442D01*
X0114205Y0042484D01*
X0114136Y0042523D01*
X0114066Y0042558D01*
X0113994Y0042590D01*
X0113921Y0042618D01*
X0113846Y0042643D01*
X0113771Y0042664D01*
X0113694Y0042681D01*
X0113617Y0042695D01*
X0113539Y0042704D01*
X0113461Y0042710D01*
X0113382Y0042712D01*
X0108294Y0039867D02*
X0105272Y0036312D01*
X0108828Y0036312D01*
X0105272Y0041289D02*
X0105301Y0041374D01*
X0105334Y0041457D01*
X0105371Y0041538D01*
X0105411Y0041618D01*
X0105454Y0041695D01*
X0105501Y0041771D01*
X0105551Y0041845D01*
X0105604Y0041917D01*
X0105660Y0041986D01*
X0105719Y0042053D01*
X0105781Y0042117D01*
X0105846Y0042178D01*
X0105913Y0042237D01*
X0105983Y0042292D01*
X0106055Y0042345D01*
X0106129Y0042394D01*
X0106206Y0042440D01*
X0106284Y0042482D01*
X0106364Y0042522D01*
X0106446Y0042557D01*
X0106529Y0042590D01*
X0106613Y0042618D01*
X0106699Y0042643D01*
X0106786Y0042664D01*
X0106873Y0042681D01*
X0106961Y0042695D01*
X0107050Y0042704D01*
X0107139Y0042710D01*
X0107228Y0042712D01*
X0107307Y0042710D01*
X0107385Y0042704D01*
X0107463Y0042695D01*
X0107540Y0042681D01*
X0107617Y0042664D01*
X0107692Y0042643D01*
X0107767Y0042618D01*
X0107840Y0042590D01*
X0107912Y0042558D01*
X0107982Y0042523D01*
X0108051Y0042484D01*
X0108117Y0042442D01*
X0108181Y0042397D01*
X0108243Y0042349D01*
X0108302Y0042298D01*
X0108359Y0042243D01*
X0108414Y0042186D01*
X0108465Y0042127D01*
X0108513Y0042065D01*
X0108558Y0042001D01*
X0108600Y0041935D01*
X0108639Y0041866D01*
X0108674Y0041796D01*
X0108706Y0041724D01*
X0108734Y0041651D01*
X0108759Y0041576D01*
X0108780Y0041501D01*
X0108797Y0041424D01*
X0108811Y0041347D01*
X0108820Y0041269D01*
X0108826Y0041191D01*
X0108828Y0041112D01*
X0108826Y0041030D01*
X0108820Y0040948D01*
X0108810Y0040867D01*
X0108797Y0040786D01*
X0108779Y0040706D01*
X0108758Y0040627D01*
X0108733Y0040549D01*
X0108705Y0040473D01*
X0108672Y0040397D01*
X0108637Y0040324D01*
X0108597Y0040252D01*
X0108555Y0040182D01*
X0108509Y0040114D01*
X0108460Y0040049D01*
X0108408Y0039986D01*
X0108352Y0039925D01*
X0108295Y0039867D01*
M02*
