%
M48
M72
T01C0.03150
T02C0.03937
%
T01
X55000Y85000
X63750Y91250
X73750Y97500
X87500Y130000
X93321Y136250
X98750Y142500
X103750Y148750
X110000Y155000
X115000Y161250
X120000Y167500
X157500Y136250
X137500Y97500
X147500Y91250
X157500Y85000
X185000Y61250
X175011Y28750
X165000Y22500
X20000Y142500
X26250Y148750
X32500Y155000
X38750Y161250
X45000Y167500
T02
X54301Y40000
X54301Y50000
X64301Y50000
X74301Y50000
X74301Y40000
X64301Y40000
X84301Y40000
X84301Y50000
X94301Y50000
X104301Y50000
X104301Y40000
X94301Y40000
X145000Y40000
X155000Y40000
X155000Y50000
X145000Y50000
X165000Y50000
X165000Y40000
X175000Y40000
X185000Y40000
X185000Y50000
X175000Y50000
X195000Y50000
X195000Y40000
X157500Y108750
X157500Y118750
X147500Y118750
X147500Y108750
X137500Y108750
X127500Y108750
X127500Y118750
X137500Y118750
X117500Y118750
X107500Y118750
X107500Y108750
X117500Y108750
X97500Y108750
X87500Y108750
X87500Y118750
X97500Y118750
M30
