G75*
%MOIN*%
%OFA0B0*%
%FSLAX25Y25*%
%IPPOS*%
%LPD*%
%AMOC8*
5,1,8,0,0,1.08239X$1,22.5*
%
%ADD10R,0.04362X0.04362*%
%ADD11C,0.04134*%
%ADD12C,0.03000*%
D10*
X0032500Y0042500D03*
X0032500Y0052500D03*
X0042500Y0052500D03*
X0042500Y0042500D03*
X0052500Y0042500D03*
X0052500Y0052500D03*
X0062500Y0052500D03*
X0062500Y0042500D03*
X0072500Y0042500D03*
X0072500Y0052500D03*
X0082500Y0052500D03*
X0082500Y0042500D03*
X0123051Y0042500D03*
X0133051Y0042500D03*
X0133051Y0052500D03*
X0123051Y0052500D03*
X0143051Y0052500D03*
X0143051Y0042500D03*
X0153051Y0042500D03*
X0153051Y0052500D03*
X0163051Y0052500D03*
X0163051Y0042500D03*
X0173051Y0042500D03*
X0173051Y0052500D03*
X0142500Y0107500D03*
X0132500Y0107500D03*
X0122500Y0107500D03*
X0112500Y0107500D03*
X0102500Y0107500D03*
X0092500Y0107500D03*
X0082500Y0107500D03*
X0072500Y0107500D03*
X0072500Y0117500D03*
X0082500Y0117500D03*
X0092500Y0117500D03*
X0102500Y0117500D03*
X0112500Y0117500D03*
X0122500Y0117500D03*
X0132500Y0117500D03*
X0142500Y0117500D03*
D11*
X0142500Y0133067D03*
X0112219Y0148240D03*
X0102500Y0148067D03*
X0092500Y0139433D03*
X0072500Y0126933D03*
X0112500Y0100567D03*
X0122500Y0095000D03*
X0132500Y0095000D03*
X0102789Y0081374D03*
X0131521Y0062010D03*
X0152500Y0062500D03*
X0172500Y0028067D03*
X0112500Y0040000D03*
X0072500Y0072500D03*
X0062500Y0082500D03*
X0052500Y0090000D03*
X0052500Y0027500D03*
X0062500Y0022500D03*
D12*
X0052500Y0027500D02*
X0012500Y0027500D01*
X0012500Y0102500D01*
X0048067Y0148067D01*
X0102500Y0148067D01*
X0112219Y0148240D02*
X0113979Y0147500D01*
X0182500Y0147500D01*
X0182500Y0022500D01*
X0062500Y0022500D01*
X0102789Y0032211D02*
X0107500Y0027500D01*
X0172500Y0027500D01*
X0172500Y0028067D01*
X0152500Y0062500D02*
X0172500Y0082500D01*
X0172500Y0140000D01*
X0092500Y0140000D01*
X0092500Y0139433D01*
X0072500Y0127500D02*
X0072500Y0126933D01*
X0072500Y0127500D02*
X0152500Y0127500D01*
X0155000Y0125000D01*
X0155000Y0107500D01*
X0154571Y0102500D01*
X0134571Y0082500D01*
X0115000Y0082500D01*
X0112500Y0080000D01*
X0112500Y0040000D01*
X0102789Y0032211D02*
X0102789Y0081374D01*
X0122500Y0095000D02*
X0077500Y0095000D01*
X0062500Y0082500D01*
X0072500Y0077500D02*
X0082500Y0087500D01*
X0132500Y0087500D01*
X0132500Y0095000D01*
X0112500Y0100567D02*
X0072789Y0100856D01*
X0065000Y0100567D01*
X0052500Y0090000D01*
X0072500Y0077500D02*
X0072500Y0072500D01*
X0131521Y0062010D02*
X0142010Y0062010D01*
X0167500Y0087500D01*
X0167500Y0135000D01*
X0147500Y0135000D01*
X0145567Y0133067D01*
X0142500Y0133067D01*
M02*
