G75*
%MOIN*%
%OFA0B0*%
%FSLAX25Y25*%
%IPPOS*%
%LPD*%
%AMOC8*
5,1,8,0,0,1.08239X$1,22.5*
%
%ADD10R,0.05937X0.05937*%
%ADD11C,0.04750*%
%ADD12C,0.03000*%
D10*
X0054301Y0040000D03*
X0054301Y0050000D03*
X0064301Y0050000D03*
X0074301Y0050000D03*
X0074301Y0040000D03*
X0064301Y0040000D03*
X0084301Y0040000D03*
X0084301Y0050000D03*
X0094301Y0050000D03*
X0104301Y0050000D03*
X0104301Y0040000D03*
X0094301Y0040000D03*
X0145000Y0040000D03*
X0155000Y0040000D03*
X0155000Y0050000D03*
X0145000Y0050000D03*
X0165000Y0050000D03*
X0165000Y0040000D03*
X0175000Y0040000D03*
X0185000Y0040000D03*
X0185000Y0050000D03*
X0175000Y0050000D03*
X0195000Y0050000D03*
X0195000Y0040000D03*
X0157500Y0108750D03*
X0157500Y0118750D03*
X0147500Y0118750D03*
X0147500Y0108750D03*
X0137500Y0108750D03*
X0127500Y0108750D03*
X0127500Y0118750D03*
X0137500Y0118750D03*
X0117500Y0118750D03*
X0107500Y0118750D03*
X0107500Y0108750D03*
X0117500Y0108750D03*
X0097500Y0108750D03*
X0087500Y0108750D03*
X0087500Y0118750D03*
X0097500Y0118750D03*
D11*
X0087500Y0130000D03*
X0093321Y0136250D03*
X0098750Y0142500D03*
X0103750Y0148750D03*
X0110000Y0155000D03*
X0115000Y0161250D03*
X0120000Y0167500D03*
X0157500Y0136250D03*
X0137500Y0097500D03*
X0147500Y0091250D03*
X0157500Y0085000D03*
X0185000Y0061250D03*
X0175011Y0028750D03*
X0165000Y0022500D03*
X0073750Y0097500D03*
X0063750Y0091250D03*
X0055000Y0085000D03*
X0020000Y0142500D03*
X0026250Y0148750D03*
X0032500Y0155000D03*
X0038750Y0161250D03*
X0045000Y0167500D03*
D12*
X0033750Y0136250D02*
X0033750Y0033750D01*
X0042500Y0022500D01*
X0165000Y0022500D01*
X0175011Y0028750D02*
X0046250Y0028750D01*
X0040000Y0036250D01*
X0040000Y0130000D01*
X0087500Y0130000D01*
X0093321Y0136250D02*
X0033750Y0136250D01*
X0026250Y0148750D02*
X0103750Y0148750D01*
X0098750Y0142500D02*
X0020000Y0142500D01*
X0032500Y0155000D02*
X0110000Y0155000D01*
X0115000Y0161250D02*
X0038750Y0161250D01*
X0045000Y0167500D02*
X0120000Y0167500D01*
X0157500Y0136250D02*
X0173750Y0136250D01*
X0185000Y0061250D01*
X0157500Y0085000D02*
X0055000Y0085000D01*
X0063750Y0091250D02*
X0147500Y0091250D01*
X0137500Y0097500D02*
X0073750Y0097500D01*
M02*
