G75*
%MOIN*%
%OFA0B0*%
%FSLAX25Y25*%
%IPPOS*%
%LPD*%
%AMOC8*
5,1,8,0,0,1.08239X$1,22.5*
%
%ADD10R,0.04362X0.04362*%
%ADD11C,0.03000*%
%ADD12C,0.04134*%
D10*
X0032500Y0042500D03*
X0032500Y0052500D03*
X0042500Y0052500D03*
X0042500Y0042500D03*
X0052500Y0042500D03*
X0052500Y0052500D03*
X0062500Y0052500D03*
X0062500Y0042500D03*
X0072500Y0042500D03*
X0072500Y0052500D03*
X0082500Y0052500D03*
X0082500Y0042500D03*
X0123051Y0042500D03*
X0133051Y0042500D03*
X0133051Y0052500D03*
X0123051Y0052500D03*
X0143051Y0052500D03*
X0143051Y0042500D03*
X0153051Y0042500D03*
X0153051Y0052500D03*
X0163051Y0052500D03*
X0163051Y0042500D03*
X0173051Y0042500D03*
X0173051Y0052500D03*
X0142500Y0107500D03*
X0132500Y0107500D03*
X0122500Y0107500D03*
X0112500Y0107500D03*
X0102500Y0107500D03*
X0092500Y0107500D03*
X0082500Y0107500D03*
X0072500Y0107500D03*
X0072500Y0117500D03*
X0082500Y0117500D03*
X0092500Y0117500D03*
X0102500Y0117500D03*
X0112500Y0117500D03*
X0122500Y0117500D03*
X0132500Y0117500D03*
X0142500Y0117500D03*
D11*
X0006000Y0165201D02*
X0006000Y0006000D01*
X0019429Y0006000D01*
X0019125Y0006304D01*
X0018535Y0006796D01*
X0018426Y0007002D01*
X0018261Y0007168D01*
X0017967Y0007877D01*
X0017611Y0008557D01*
X0017589Y0008790D01*
X0017500Y0009005D01*
X0017500Y0009773D01*
X0015089Y0036290D01*
X0015000Y0036505D01*
X0015000Y0037273D01*
X0014930Y0038038D01*
X0015000Y0038261D01*
X0015000Y0089463D01*
X0014903Y0089910D01*
X0015000Y0090448D01*
X0015000Y0090995D01*
X0015175Y0091417D01*
X0015256Y0091867D01*
X0015552Y0092327D01*
X0015761Y0092832D01*
X0016085Y0093156D01*
X0060552Y0162327D01*
X0060761Y0162832D01*
X0061085Y0163156D01*
X0061332Y0163540D01*
X0061781Y0163852D01*
X0062168Y0164239D01*
X0062590Y0164414D01*
X0062966Y0164675D01*
X0063500Y0164791D01*
X0064005Y0165000D01*
X0064463Y0165000D01*
X0064910Y0165097D01*
X0065448Y0165000D01*
X0129853Y0165000D01*
X0130699Y0165050D01*
X0130843Y0165000D01*
X0130995Y0165000D01*
X0131778Y0164676D01*
X0132578Y0164398D01*
X0132692Y0164297D01*
X0132832Y0164239D01*
X0133432Y0163639D01*
X0134065Y0163076D01*
X0134131Y0162940D01*
X0134239Y0162832D01*
X0134563Y0162049D01*
X0134933Y0161286D01*
X0134942Y0161135D01*
X0135000Y0160995D01*
X0135000Y0160147D01*
X0137240Y0122072D01*
X0137648Y0121664D01*
X0138041Y0120715D01*
X0138103Y0120865D01*
X0138377Y0121275D01*
X0138725Y0121623D01*
X0139135Y0121897D01*
X0139590Y0122085D01*
X0140073Y0122181D01*
X0142500Y0122181D01*
X0142500Y0117500D01*
X0142500Y0133067D01*
X0136689Y0131436D02*
X0198921Y0131436D01*
X0198921Y0134434D02*
X0136512Y0134434D01*
X0136336Y0137433D02*
X0198921Y0137433D01*
X0198921Y0140432D02*
X0136160Y0140432D01*
X0135983Y0143430D02*
X0198921Y0143430D01*
X0198921Y0146429D02*
X0135807Y0146429D01*
X0135631Y0149427D02*
X0198921Y0149427D01*
X0198921Y0152426D02*
X0135454Y0152426D01*
X0135278Y0155424D02*
X0198921Y0155424D01*
X0198921Y0158423D02*
X0135101Y0158423D01*
X0134868Y0161421D02*
X0198921Y0161421D01*
X0198921Y0164420D02*
X0132516Y0164420D01*
X0130000Y0160000D02*
X0132500Y0117500D01*
X0137218Y0122440D02*
X0198921Y0122440D01*
X0198921Y0125439D02*
X0137042Y0125439D01*
X0136865Y0128437D02*
X0198921Y0128437D01*
X0198921Y0119442D02*
X0147181Y0119442D01*
X0147181Y0119927D02*
X0147085Y0120410D01*
X0146897Y0120865D01*
X0146623Y0121275D01*
X0146275Y0121623D01*
X0145865Y0121897D01*
X0145410Y0122085D01*
X0144927Y0122181D01*
X0142500Y0122181D01*
X0142500Y0117500D01*
X0142500Y0117500D01*
X0147181Y0117500D01*
X0147181Y0119927D01*
X0147181Y0117500D02*
X0142500Y0117500D01*
X0142500Y0117500D01*
X0142500Y0119442D02*
X0142500Y0119442D01*
X0147181Y0117500D02*
X0147181Y0115073D01*
X0147085Y0114590D01*
X0146897Y0114135D01*
X0146623Y0113725D01*
X0146275Y0113377D01*
X0145865Y0113103D01*
X0145715Y0113041D01*
X0146664Y0112648D01*
X0147648Y0111664D01*
X0148181Y0110377D01*
X0148181Y0109155D01*
X0188088Y0073944D01*
X0188664Y0073545D01*
X0188827Y0073291D01*
X0189054Y0073091D01*
X0189362Y0072462D01*
X0189741Y0071873D01*
X0189795Y0071576D01*
X0189928Y0071305D01*
X0189972Y0070605D01*
X0194858Y0043730D01*
X0195062Y0043108D01*
X0195035Y0042760D01*
X0195097Y0042416D01*
X0194959Y0041777D01*
X0192500Y0009808D01*
X0192500Y0009005D01*
X0192424Y0008822D01*
X0192409Y0008625D01*
X0192046Y0007909D01*
X0191739Y0007168D01*
X0191599Y0007028D01*
X0191509Y0006851D01*
X0190900Y0006329D01*
X0190571Y0006000D01*
X0198921Y0006000D01*
X0198921Y0165201D01*
X0006000Y0165201D01*
X0006000Y0164420D02*
X0062599Y0164420D01*
X0059970Y0161421D02*
X0006000Y0161421D01*
X0006000Y0158423D02*
X0058042Y0158423D01*
X0056114Y0155424D02*
X0006000Y0155424D01*
X0006000Y0152426D02*
X0054187Y0152426D01*
X0052259Y0149427D02*
X0006000Y0149427D01*
X0006000Y0146429D02*
X0050331Y0146429D01*
X0048404Y0143430D02*
X0006000Y0143430D01*
X0006000Y0140432D02*
X0046476Y0140432D01*
X0044549Y0137433D02*
X0006000Y0137433D01*
X0006000Y0134434D02*
X0042621Y0134434D01*
X0040693Y0131436D02*
X0006000Y0131436D01*
X0006000Y0128437D02*
X0038766Y0128437D01*
X0036838Y0125439D02*
X0006000Y0125439D01*
X0006000Y0122440D02*
X0034911Y0122440D01*
X0032983Y0119442D02*
X0006000Y0119442D01*
X0006000Y0116443D02*
X0031055Y0116443D01*
X0029128Y0113445D02*
X0006000Y0113445D01*
X0006000Y0110446D02*
X0027200Y0110446D01*
X0025272Y0107448D02*
X0006000Y0107448D01*
X0006000Y0104449D02*
X0023345Y0104449D01*
X0021417Y0101451D02*
X0006000Y0101451D01*
X0006000Y0098452D02*
X0019490Y0098452D01*
X0017562Y0095454D02*
X0006000Y0095454D01*
X0006000Y0092455D02*
X0015605Y0092455D01*
X0015000Y0089457D02*
X0006000Y0089457D01*
X0006000Y0086458D02*
X0015000Y0086458D01*
X0015000Y0083460D02*
X0006000Y0083460D01*
X0006000Y0080461D02*
X0015000Y0080461D01*
X0015000Y0077463D02*
X0006000Y0077463D01*
X0006000Y0074464D02*
X0015000Y0074464D01*
X0015000Y0071466D02*
X0006000Y0071466D01*
X0006000Y0068467D02*
X0015000Y0068467D01*
X0015000Y0065469D02*
X0006000Y0065469D01*
X0006000Y0062470D02*
X0015000Y0062470D01*
X0015000Y0059472D02*
X0006000Y0059472D01*
X0006000Y0056473D02*
X0015000Y0056473D01*
X0015000Y0053475D02*
X0006000Y0053475D01*
X0006000Y0050476D02*
X0015000Y0050476D01*
X0015000Y0047478D02*
X0006000Y0047478D01*
X0006000Y0044479D02*
X0015000Y0044479D01*
X0015000Y0041481D02*
X0006000Y0041481D01*
X0006000Y0038482D02*
X0015000Y0038482D01*
X0015163Y0035484D02*
X0006000Y0035484D01*
X0006000Y0032485D02*
X0015435Y0032485D01*
X0015708Y0029487D02*
X0006000Y0029487D01*
X0006000Y0026488D02*
X0015980Y0026488D01*
X0016253Y0023490D02*
X0006000Y0023490D01*
X0006000Y0020491D02*
X0016526Y0020491D01*
X0016798Y0017493D02*
X0006000Y0017493D01*
X0006000Y0014494D02*
X0017071Y0014494D01*
X0017343Y0011496D02*
X0006000Y0011496D01*
X0006000Y0008497D02*
X0017642Y0008497D01*
X0022500Y0010000D02*
X0020000Y0037500D01*
X0020000Y0090000D01*
X0065000Y0160000D01*
X0130000Y0160000D01*
X0120000Y0155000D02*
X0122500Y0117500D01*
X0112500Y0117500D02*
X0113067Y0126933D01*
X0113067Y0144891D01*
X0112219Y0148240D01*
X0102500Y0148067D02*
X0102500Y0117500D01*
X0092500Y0117500D02*
X0092500Y0139433D01*
X0082500Y0132500D02*
X0082500Y0117500D01*
X0072500Y0117500D02*
X0072500Y0126933D01*
X0065000Y0132500D02*
X0082500Y0132500D01*
X0065000Y0132500D02*
X0065000Y0090000D01*
X0077500Y0077500D01*
X0080000Y0060000D01*
X0092500Y0060000D01*
X0097500Y0052500D01*
X0097500Y0017500D01*
X0155000Y0017500D01*
X0155000Y0035000D01*
X0152500Y0042500D01*
X0153051Y0042500D01*
X0143051Y0042500D02*
X0142500Y0041949D01*
X0142500Y0032500D01*
X0115000Y0032500D01*
X0112500Y0035000D01*
X0112500Y0040000D01*
X0105000Y0052500D02*
X0100000Y0065000D01*
X0085000Y0065000D01*
X0082500Y0080000D01*
X0077500Y0087500D01*
X0072500Y0092500D01*
X0072500Y0107500D01*
X0082500Y0107500D02*
X0082500Y0092500D01*
X0085000Y0087500D01*
X0087500Y0085000D01*
X0090000Y0070000D01*
X0142500Y0070000D01*
X0142500Y0052500D01*
X0143051Y0052500D01*
X0137500Y0055739D02*
X0137448Y0055865D01*
X0137174Y0056275D01*
X0136826Y0056623D01*
X0136416Y0056897D01*
X0135962Y0057085D01*
X0135479Y0057181D01*
X0133051Y0057181D01*
X0130624Y0057181D01*
X0130141Y0057085D01*
X0129686Y0056897D01*
X0129276Y0056623D01*
X0128928Y0056275D01*
X0128655Y0055865D01*
X0128592Y0055715D01*
X0128199Y0056664D01*
X0127215Y0057648D01*
X0125928Y0058181D01*
X0120174Y0058181D01*
X0118887Y0057648D01*
X0118739Y0057500D01*
X0108385Y0057500D01*
X0105385Y0065000D01*
X0137500Y0065000D01*
X0137500Y0055739D01*
X0137500Y0056473D02*
X0136976Y0056473D01*
X0137500Y0059472D02*
X0107596Y0059472D01*
X0106397Y0062470D02*
X0137500Y0062470D01*
X0132500Y0061320D02*
X0132028Y0062264D01*
X0131774Y0062264D01*
X0131521Y0062010D01*
X0132500Y0061320D02*
X0132500Y0053051D01*
X0133051Y0052500D01*
X0133051Y0057181D01*
X0133051Y0052500D01*
X0133051Y0052500D01*
X0133051Y0053475D02*
X0133051Y0053475D01*
X0133051Y0056473D02*
X0133051Y0056473D01*
X0129127Y0056473D02*
X0128278Y0056473D01*
X0123051Y0052500D02*
X0105000Y0052500D01*
X0090000Y0050000D02*
X0082500Y0052500D01*
X0090000Y0050000D02*
X0090000Y0012500D01*
X0095000Y0010000D01*
X0187500Y0010000D01*
X0190000Y0042500D01*
X0185000Y0070000D01*
X0142500Y0107500D01*
X0148152Y0110446D02*
X0198921Y0110446D01*
X0198921Y0107448D02*
X0150116Y0107448D01*
X0153515Y0104449D02*
X0198921Y0104449D01*
X0198921Y0101451D02*
X0156913Y0101451D01*
X0160311Y0098452D02*
X0198921Y0098452D01*
X0198921Y0095454D02*
X0163709Y0095454D01*
X0167108Y0092455D02*
X0198921Y0092455D01*
X0198921Y0089457D02*
X0170506Y0089457D01*
X0173904Y0086458D02*
X0198921Y0086458D01*
X0198921Y0083460D02*
X0177303Y0083460D01*
X0180701Y0080461D02*
X0198921Y0080461D01*
X0198921Y0077463D02*
X0184099Y0077463D01*
X0187498Y0074464D02*
X0198921Y0074464D01*
X0198921Y0071466D02*
X0189849Y0071466D01*
X0190361Y0068467D02*
X0198921Y0068467D01*
X0198921Y0065469D02*
X0190906Y0065469D01*
X0191451Y0062470D02*
X0198921Y0062470D01*
X0198921Y0059472D02*
X0191996Y0059472D01*
X0192541Y0056473D02*
X0198921Y0056473D01*
X0198921Y0053475D02*
X0193087Y0053475D01*
X0193632Y0050476D02*
X0198921Y0050476D01*
X0198921Y0047478D02*
X0194177Y0047478D01*
X0194722Y0044479D02*
X0198921Y0044479D01*
X0198921Y0041481D02*
X0194936Y0041481D01*
X0194706Y0038482D02*
X0198921Y0038482D01*
X0198921Y0035484D02*
X0194475Y0035484D01*
X0194244Y0032485D02*
X0198921Y0032485D01*
X0198921Y0029487D02*
X0194014Y0029487D01*
X0193783Y0026488D02*
X0198921Y0026488D01*
X0198921Y0023490D02*
X0193552Y0023490D01*
X0193322Y0020491D02*
X0198921Y0020491D01*
X0198921Y0017493D02*
X0193091Y0017493D01*
X0192860Y0014494D02*
X0198921Y0014494D01*
X0198921Y0011496D02*
X0192630Y0011496D01*
X0192344Y0008497D02*
X0198921Y0008497D01*
X0180000Y0015000D02*
X0180000Y0055000D01*
X0150000Y0075000D01*
X0095000Y0075000D01*
X0092500Y0090000D01*
X0092500Y0107500D01*
X0102500Y0107500D02*
X0102500Y0097500D01*
X0102665Y0097500D01*
X0102665Y0092748D01*
X0102789Y0081374D01*
X0122500Y0095000D02*
X0122500Y0107500D01*
X0112500Y0107500D02*
X0112500Y0100567D01*
X0132500Y0095000D02*
X0132500Y0107500D01*
X0146343Y0113445D02*
X0198921Y0113445D01*
X0198921Y0116443D02*
X0147181Y0116443D01*
X0120000Y0155000D02*
X0067500Y0155000D01*
X0025000Y0087500D01*
X0025000Y0040000D01*
X0030000Y0015000D01*
X0065000Y0015000D01*
X0072500Y0042500D01*
X0072500Y0052500D02*
X0072500Y0072500D01*
X0062500Y0082500D02*
X0062500Y0052500D01*
X0062500Y0042500D02*
X0062500Y0022500D01*
X0052500Y0027500D02*
X0052500Y0042500D01*
X0052500Y0052500D02*
X0052500Y0090000D01*
X0082500Y0042500D02*
X0070000Y0010000D01*
X0022500Y0010000D01*
X0153051Y0052500D02*
X0153051Y0061949D01*
X0152500Y0062500D01*
X0163051Y0042500D02*
X0165000Y0032500D01*
X0170000Y0015000D01*
X0180000Y0015000D01*
X0172500Y0028067D02*
X0172500Y0041949D01*
X0173051Y0042500D01*
D12*
X0172500Y0028067D03*
X0152500Y0062500D03*
X0131521Y0062010D03*
X0112500Y0040000D03*
X0072500Y0072500D03*
X0062500Y0082500D03*
X0052500Y0090000D03*
X0072500Y0126933D03*
X0092500Y0139433D03*
X0102500Y0148067D03*
X0112219Y0148240D03*
X0142500Y0133067D03*
X0112500Y0100567D03*
X0122500Y0095000D03*
X0132500Y0095000D03*
X0102789Y0081374D03*
X0052500Y0027500D03*
X0062500Y0022500D03*
M02*
