G75*
%MOIN*%
%OFA0B0*%
%FSLAX25Y25*%
%IPPOS*%
%LPD*%
%AMOC8*
5,1,8,0,0,1.08239X$1,22.5*
%
%ADD10R,0.06000X0.06000*%
%ADD11R,0.05937X0.05937*%
%ADD12C,0.03000*%
%ADD13C,0.04750*%
%ADD14C,0.03600*%
D10*
X0072500Y0107500D03*
X0082500Y0107500D03*
X0092500Y0107500D03*
X0102500Y0107500D03*
X0102500Y0117500D03*
X0092500Y0117500D03*
X0082500Y0117500D03*
X0072500Y0117500D03*
D11*
X0112500Y0117500D03*
X0122500Y0117500D03*
X0132500Y0117500D03*
X0142500Y0117500D03*
X0142500Y0107500D03*
X0132500Y0107500D03*
X0122500Y0107500D03*
X0112500Y0107500D03*
X0123051Y0052500D03*
X0133051Y0052500D03*
X0133051Y0042500D03*
X0123051Y0042500D03*
X0143051Y0042500D03*
X0143051Y0052500D03*
X0153051Y0052500D03*
X0153051Y0042500D03*
X0163051Y0042500D03*
X0163051Y0052500D03*
X0173051Y0052500D03*
X0173051Y0042500D03*
X0082500Y0042500D03*
X0082500Y0052500D03*
X0072500Y0052500D03*
X0072500Y0042500D03*
X0062500Y0042500D03*
X0062500Y0052500D03*
X0052500Y0052500D03*
X0052500Y0042500D03*
X0042500Y0042500D03*
X0042500Y0052500D03*
X0032500Y0052500D03*
X0032500Y0042500D03*
D12*
X0006000Y0006000D02*
X0006000Y0165201D01*
X0198921Y0165201D01*
X0198921Y0006000D01*
X0190571Y0006000D01*
X0191739Y0007168D01*
X0192500Y0009005D01*
X0192500Y0044262D01*
X0192574Y0044508D01*
X0192500Y0045249D01*
X0192500Y0045995D01*
X0192402Y0046232D01*
X0189984Y0070405D01*
X0189928Y0071305D01*
X0189886Y0071391D01*
X0189876Y0071487D01*
X0189450Y0072281D01*
X0189054Y0073091D01*
X0188982Y0073155D01*
X0188936Y0073240D01*
X0188238Y0073811D01*
X0148968Y0108461D01*
X0148968Y0111165D01*
X0148436Y0112451D01*
X0147626Y0113261D01*
X0147684Y0113347D01*
X0147872Y0113802D01*
X0147968Y0114285D01*
X0147968Y0117500D01*
X0147968Y0120715D01*
X0147872Y0121198D01*
X0147684Y0121653D01*
X0147410Y0122062D01*
X0147062Y0122410D01*
X0146653Y0122684D01*
X0146198Y0122872D01*
X0145715Y0122968D01*
X0142500Y0122968D01*
X0139285Y0122968D01*
X0138802Y0122872D01*
X0138347Y0122684D01*
X0138261Y0122626D01*
X0137451Y0123436D01*
X0137152Y0123559D01*
X0135000Y0160147D01*
X0135000Y0160995D01*
X0134942Y0161135D01*
X0134933Y0161286D01*
X0134563Y0162049D01*
X0134239Y0162832D01*
X0134131Y0162940D01*
X0134065Y0163076D01*
X0133432Y0163639D01*
X0132832Y0164239D01*
X0132692Y0164297D01*
X0132578Y0164398D01*
X0131778Y0164676D01*
X0130995Y0165000D01*
X0130843Y0165000D01*
X0130699Y0165050D01*
X0129853Y0165000D01*
X0062883Y0165000D01*
X0062279Y0165093D01*
X0061898Y0165000D01*
X0061505Y0165000D01*
X0060941Y0164766D01*
X0060347Y0164621D01*
X0060030Y0164389D01*
X0059668Y0164239D01*
X0059235Y0163806D01*
X0058742Y0163445D01*
X0058539Y0163110D01*
X0058261Y0162832D01*
X0058027Y0162267D01*
X0016039Y0093110D01*
X0015761Y0092832D01*
X0015527Y0092267D01*
X0015210Y0091745D01*
X0015150Y0091357D01*
X0015000Y0090995D01*
X0015000Y0090383D01*
X0014907Y0089779D01*
X0015000Y0089398D01*
X0015000Y0038261D01*
X0014930Y0038038D01*
X0015000Y0037273D01*
X0015000Y0036505D01*
X0015089Y0036290D01*
X0017500Y0009773D01*
X0017500Y0009005D01*
X0017589Y0008790D01*
X0017611Y0008557D01*
X0017967Y0007877D01*
X0018261Y0007168D01*
X0018426Y0007002D01*
X0018535Y0006796D01*
X0019125Y0006304D01*
X0019429Y0006000D01*
X0006000Y0006000D01*
X0006000Y0008497D02*
X0017642Y0008497D01*
X0017343Y0011496D02*
X0006000Y0011496D01*
X0006000Y0014494D02*
X0017071Y0014494D01*
X0016798Y0017493D02*
X0006000Y0017493D01*
X0006000Y0020491D02*
X0016526Y0020491D01*
X0016253Y0023490D02*
X0006000Y0023490D01*
X0006000Y0026488D02*
X0015980Y0026488D01*
X0015708Y0029487D02*
X0006000Y0029487D01*
X0006000Y0032485D02*
X0015435Y0032485D01*
X0015163Y0035484D02*
X0006000Y0035484D01*
X0006000Y0038482D02*
X0015000Y0038482D01*
X0015000Y0041481D02*
X0006000Y0041481D01*
X0006000Y0044479D02*
X0015000Y0044479D01*
X0015000Y0047478D02*
X0006000Y0047478D01*
X0006000Y0050476D02*
X0015000Y0050476D01*
X0015000Y0053475D02*
X0006000Y0053475D01*
X0006000Y0056473D02*
X0015000Y0056473D01*
X0015000Y0059472D02*
X0006000Y0059472D01*
X0006000Y0062470D02*
X0015000Y0062470D01*
X0015000Y0065469D02*
X0006000Y0065469D01*
X0006000Y0068467D02*
X0015000Y0068467D01*
X0015000Y0071466D02*
X0006000Y0071466D01*
X0006000Y0074464D02*
X0015000Y0074464D01*
X0015000Y0077463D02*
X0006000Y0077463D01*
X0006000Y0080461D02*
X0015000Y0080461D01*
X0015000Y0083460D02*
X0006000Y0083460D01*
X0006000Y0086458D02*
X0015000Y0086458D01*
X0014986Y0089457D02*
X0006000Y0089457D01*
X0006000Y0092455D02*
X0015605Y0092455D01*
X0017462Y0095454D02*
X0006000Y0095454D01*
X0006000Y0098452D02*
X0019282Y0098452D01*
X0021103Y0101451D02*
X0006000Y0101451D01*
X0006000Y0104449D02*
X0022923Y0104449D01*
X0024744Y0107448D02*
X0006000Y0107448D01*
X0006000Y0110446D02*
X0026564Y0110446D01*
X0028385Y0113445D02*
X0006000Y0113445D01*
X0006000Y0116443D02*
X0030206Y0116443D01*
X0032026Y0119442D02*
X0006000Y0119442D01*
X0006000Y0122440D02*
X0033847Y0122440D01*
X0035667Y0125439D02*
X0006000Y0125439D01*
X0006000Y0128437D02*
X0037488Y0128437D01*
X0039308Y0131436D02*
X0006000Y0131436D01*
X0006000Y0134434D02*
X0041129Y0134434D01*
X0042949Y0137433D02*
X0006000Y0137433D01*
X0006000Y0140432D02*
X0044770Y0140432D01*
X0046590Y0143430D02*
X0006000Y0143430D01*
X0006000Y0146429D02*
X0048411Y0146429D01*
X0050231Y0149427D02*
X0006000Y0149427D01*
X0006000Y0152426D02*
X0052052Y0152426D01*
X0053872Y0155424D02*
X0006000Y0155424D01*
X0006000Y0158423D02*
X0055693Y0158423D01*
X0057513Y0161421D02*
X0006000Y0161421D01*
X0006000Y0164420D02*
X0060072Y0164420D01*
X0062500Y0160000D02*
X0130000Y0160000D01*
X0132500Y0117500D01*
X0137042Y0125439D02*
X0198921Y0125439D01*
X0198921Y0122440D02*
X0147017Y0122440D01*
X0147968Y0119442D02*
X0198921Y0119442D01*
X0198921Y0116443D02*
X0147968Y0116443D01*
X0147968Y0117500D02*
X0142500Y0117500D01*
X0142500Y0134317D01*
X0136512Y0134434D02*
X0198921Y0134434D01*
X0198921Y0137433D02*
X0136336Y0137433D01*
X0136160Y0140432D02*
X0198921Y0140432D01*
X0198921Y0143430D02*
X0135983Y0143430D01*
X0135807Y0146429D02*
X0198921Y0146429D01*
X0198921Y0149427D02*
X0135631Y0149427D01*
X0135454Y0152426D02*
X0198921Y0152426D01*
X0198921Y0155424D02*
X0135278Y0155424D01*
X0135101Y0158423D02*
X0198921Y0158423D01*
X0198921Y0161421D02*
X0134868Y0161421D01*
X0132516Y0164420D02*
X0198921Y0164420D01*
X0198921Y0131436D02*
X0136689Y0131436D01*
X0136865Y0128437D02*
X0198921Y0128437D01*
X0198921Y0113445D02*
X0147724Y0113445D01*
X0148968Y0110446D02*
X0198921Y0110446D01*
X0198921Y0107448D02*
X0150116Y0107448D01*
X0153515Y0104449D02*
X0198921Y0104449D01*
X0198921Y0101451D02*
X0156913Y0101451D01*
X0160311Y0098452D02*
X0198921Y0098452D01*
X0198921Y0095454D02*
X0163709Y0095454D01*
X0167108Y0092455D02*
X0198921Y0092455D01*
X0198921Y0089457D02*
X0170506Y0089457D01*
X0173904Y0086458D02*
X0198921Y0086458D01*
X0198921Y0083460D02*
X0177303Y0083460D01*
X0180701Y0080461D02*
X0198921Y0080461D01*
X0198921Y0077463D02*
X0184099Y0077463D01*
X0187498Y0074464D02*
X0198921Y0074464D01*
X0198921Y0071466D02*
X0189878Y0071466D01*
X0190178Y0068467D02*
X0198921Y0068467D01*
X0198921Y0065469D02*
X0190478Y0065469D01*
X0190778Y0062470D02*
X0198921Y0062470D01*
X0198921Y0059472D02*
X0191078Y0059472D01*
X0191378Y0056473D02*
X0198921Y0056473D01*
X0198921Y0053475D02*
X0191677Y0053475D01*
X0191977Y0050476D02*
X0198921Y0050476D01*
X0198921Y0047478D02*
X0192277Y0047478D01*
X0192565Y0044479D02*
X0198921Y0044479D01*
X0198921Y0041481D02*
X0192500Y0041481D01*
X0192500Y0038482D02*
X0198921Y0038482D01*
X0198921Y0035484D02*
X0192500Y0035484D01*
X0192500Y0032485D02*
X0198921Y0032485D01*
X0198921Y0029487D02*
X0192500Y0029487D01*
X0192500Y0026488D02*
X0198921Y0026488D01*
X0198921Y0023490D02*
X0192500Y0023490D01*
X0192500Y0020491D02*
X0198921Y0020491D01*
X0198921Y0017493D02*
X0192500Y0017493D01*
X0192500Y0014494D02*
X0198921Y0014494D01*
X0198921Y0011496D02*
X0192500Y0011496D01*
X0192289Y0008497D02*
X0198921Y0008497D01*
X0187500Y0010000D02*
X0187500Y0045000D01*
X0185000Y0070000D01*
X0142500Y0107500D01*
X0132500Y0107500D02*
X0132500Y0095000D01*
X0122500Y0093750D02*
X0122500Y0107500D01*
X0112500Y0107500D02*
X0112500Y0100567D01*
X0102665Y0097500D02*
X0102665Y0092748D01*
X0102789Y0081374D01*
X0097500Y0075000D02*
X0092500Y0092500D01*
X0092500Y0107500D01*
X0082500Y0107500D02*
X0083750Y0093750D01*
X0085000Y0091250D01*
X0093750Y0070000D01*
X0142500Y0070000D01*
X0142500Y0052500D01*
X0143051Y0052500D01*
X0137500Y0057836D02*
X0137291Y0057626D01*
X0137204Y0057684D01*
X0136749Y0057872D01*
X0136266Y0057968D01*
X0133051Y0057968D01*
X0129836Y0057968D01*
X0129353Y0057872D01*
X0128898Y0057684D01*
X0128812Y0057626D01*
X0128002Y0058436D01*
X0126716Y0058968D01*
X0119386Y0058968D01*
X0118100Y0058436D01*
X0117164Y0057500D01*
X0108385Y0057500D01*
X0105385Y0065000D01*
X0137500Y0065000D01*
X0137500Y0057836D01*
X0137500Y0059472D02*
X0107596Y0059472D01*
X0106397Y0062470D02*
X0137500Y0062470D01*
X0132500Y0061320D02*
X0132028Y0062264D01*
X0131774Y0062264D01*
X0131521Y0062010D01*
X0132500Y0061320D02*
X0132500Y0053051D01*
X0133051Y0052500D01*
X0133051Y0057968D01*
X0133051Y0052500D01*
X0133051Y0052500D01*
X0133051Y0053475D02*
X0133051Y0053475D01*
X0133051Y0056473D02*
X0133051Y0056473D01*
X0123051Y0052500D02*
X0105000Y0052500D01*
X0100000Y0065000D01*
X0090000Y0065000D01*
X0082500Y0080000D01*
X0077500Y0087500D01*
X0072500Y0092500D01*
X0072500Y0107500D01*
X0072500Y0117500D02*
X0072500Y0126933D01*
X0065000Y0132500D02*
X0082500Y0132500D01*
X0082500Y0117500D01*
X0092500Y0117500D02*
X0092500Y0139433D01*
X0102500Y0148067D02*
X0102500Y0117500D01*
X0112500Y0117500D02*
X0113067Y0126933D01*
X0113067Y0144891D01*
X0112219Y0148240D01*
X0120000Y0155000D02*
X0122500Y0117500D01*
X0102500Y0107500D02*
X0102500Y0097500D01*
X0102665Y0097500D01*
X0083750Y0095000D02*
X0083750Y0093750D01*
X0077500Y0077500D02*
X0065000Y0090000D01*
X0065000Y0132500D01*
X0067500Y0155000D02*
X0120000Y0155000D01*
X0142500Y0122968D02*
X0142500Y0117500D01*
X0142500Y0117500D01*
X0142500Y0122968D01*
X0142500Y0122440D02*
X0142500Y0122440D01*
X0142500Y0119442D02*
X0142500Y0119442D01*
X0142500Y0117500D02*
X0147968Y0117500D01*
X0142500Y0117500D02*
X0142500Y0117500D01*
X0150000Y0075000D02*
X0097500Y0075000D01*
X0092500Y0060000D02*
X0085000Y0060000D01*
X0077500Y0077500D01*
X0072500Y0072500D02*
X0072500Y0052500D01*
X0072500Y0042500D02*
X0072500Y0015000D01*
X0030000Y0015000D01*
X0025000Y0040000D01*
X0025000Y0087500D01*
X0067500Y0155000D01*
X0062500Y0160000D02*
X0020000Y0090000D01*
X0020000Y0037500D01*
X0022500Y0010000D01*
X0082500Y0010000D01*
X0082500Y0042500D01*
X0082500Y0052500D02*
X0090000Y0050000D01*
X0090000Y0012500D01*
X0095000Y0010000D01*
X0187500Y0010000D01*
X0180000Y0017500D02*
X0180000Y0057500D01*
X0150000Y0075000D01*
X0152500Y0062500D02*
X0153051Y0061949D01*
X0153051Y0052500D01*
X0153051Y0042500D02*
X0152500Y0042500D01*
X0152500Y0017500D01*
X0097500Y0017500D01*
X0097500Y0052500D01*
X0092500Y0060000D01*
X0112500Y0040000D02*
X0112500Y0035000D01*
X0115000Y0032500D01*
X0142500Y0032500D01*
X0142500Y0041949D01*
X0143051Y0042500D01*
X0163051Y0042500D02*
X0162500Y0032500D01*
X0162500Y0017500D01*
X0180000Y0017500D01*
X0172500Y0030567D02*
X0172500Y0041949D01*
X0173051Y0042500D01*
X0062500Y0042500D02*
X0062500Y0022500D01*
X0052500Y0027500D02*
X0052500Y0042500D01*
X0052500Y0052500D02*
X0052500Y0090000D01*
X0062500Y0082500D02*
X0062500Y0052500D01*
D13*
X0072500Y0072500D03*
X0062500Y0082500D03*
X0052500Y0090000D03*
X0102789Y0081374D03*
X0122500Y0093750D03*
X0132500Y0095000D03*
X0112500Y0100567D03*
X0142500Y0134317D03*
X0112219Y0148240D03*
X0102500Y0148067D03*
X0092500Y0139433D03*
X0131521Y0062010D03*
X0152500Y0062500D03*
X0172500Y0030567D03*
X0112500Y0040000D03*
X0062500Y0022500D03*
X0052500Y0027500D03*
D14*
X0072500Y0126933D03*
M02*
