%
M48
M72
T01C0.02000
T02C0.02362
%
T01
X52500Y27500
X62500Y22500
X112500Y40000
X131521Y62010
X152500Y62500
X132500Y95000
X122500Y95000
X112500Y100567
X102789Y81374
X72500Y72500
X62500Y82500
X52500Y90000
X72500Y126933
X92500Y139433
X102500Y148067
X112219Y148240
X142500Y133067
X172500Y28067
T02
X32500Y42500
X32500Y52500
X42500Y52500
X42500Y42500
X52500Y42500
X52500Y52500
X62500Y52500
X62500Y42500
X72500Y42500
X72500Y52500
X82500Y52500
X82500Y42500
X123051Y42500
X133051Y42500
X133051Y52500
X123051Y52500
X143051Y52500
X143051Y42500
X153051Y42500
X153051Y52500
X163051Y52500
X163051Y42500
X173051Y42500
X173051Y52500
X142500Y107500
X132500Y107500
X122500Y107500
X112500Y107500
X102500Y107500
X92500Y107500
X82500Y107500
X72500Y107500
X72500Y117500
X82500Y117500
X92500Y117500
X102500Y117500
X112500Y117500
X122500Y117500
X132500Y117500
X142500Y117500
M30
